{"title":"The Penguins Of Madagascar I Was A Penguin Zombie 2010.DvDRip","uid":5854475,"size":1768828151,"categoryP":"video","categoryS":"movies","magnet":"?xt=urn:btih:94a001079f97097796306f0981d2e20341536a73&amp;dn=The+Penguins+Of+Madagascar+I+Was+A+Penguin+Zombie+2010.DvDRip&amp;tr=udp%3A%2F%2Ftracker.openbittorrent.com%3A80&amp;tr=udp%3A%2F%2Fopen.demonii.com%3A1337&amp;tr=udp%3A%2F%2Ftracker.coppersurfer.tk%3A6969&amp;tr=udp%3A%2F%2Fexodus.desync.com%3A6969","seeders":0,"leechers":2,"uploader":"neon","files":-1,"time":1285544462,"description":"Language: English\nGenre:Animation | Comedy | Family\n &lt;a href=&quot; http://www.imdb.com/title/tt1535375/&quot; rel=&quot;nofollow&quot; target=&quot;_NEW&quot;&gt; http://www.imdb.com/title/tt1535375/&lt;/a&gt;\nSource:DVDR-KART3LDV\n &lt;a href=&quot;\nhttp://www.starshare.ro/bitbucket/The%20Penguins%20Of%20Madagascar%20I%20Was%20A%20Penguin%20Zombie%202010.DvDRip.XviD.Ac3.Feel-Free.avi_thumbs_%5B2010.09.27_00.24.13%5D.jpg&quot; rel=&quot;nofollow&quot; target=&quot;_NEW&quot;&gt;\nhttp://www.starshare.ro/bitbucket/The%20Penguins%20Of%20Madagascar%20I%20Was%20A%20Penguin%20Zombie%202010.DvDRip.XviD.Ac3.Feel-Free.avi_thumbs_%5B2010.09.27_00.24.13%5D.jpg&lt;/a&gt;\n\nGeneral\nComplete name :The Penguins Of Madagascar I Was A Penguin Zombie 2010.DvDRip.XviD.Ac3.Feel-Free\nFormat : AVI\nFormat/Info : Audio Video Interleave\nFile size : 1.65 GiB\nDuration : 1h 33mn\nOverall bit rate : 2 512 Kbps\nVideo #0\nMuxing mode : Packed bitstream\nCodec ID : XVID\nCodec ID/Hint : XviD\nDuration : 1h 33mn\nBit rate : 2 054 Kbps\nWidth : 720 pixels\nHeight : 384 pixels\nDisplay aspect ratio : 1.875\nFrame rate : 23.976 fps\nResolution : 24 bits\nColorimetry : 4:2:0\nScan type : Progressive\nBits/(Pixel*Frame) : 0.310\nStream size : 1.35 GiB (82%)\nWriting library : XviD 1.2.1 (UTC 2008-12-04)\nAudio #1\nID : 1\nFormat : AC-3\nFormat/Info : Audio Coding 3\nCodec ID : 2000\nDuration : 1h 33mn\nBit rate mode : Constant\nBit rate : 448 Kbps\nChannel(s) : 6 channels\nChannel positions : Front: L C R, Surround: L R, LFE\nSampling rate : 48.0 KHz\nStream size : 301 MiB (18%)\nAlignment : Split accross interleaves\nInterleave, duration : 42 ms (1.00 video frame)\nInterleave, preload duration : 500 ms","torrent":{"xt":"urn:btih:94a001079f97097796306f0981d2e20341536a73","amp;dn":"The+Penguins+Of+Madagascar+I+Was+A+Penguin+Zombie+2010.DvDRip","amp;tr":["udp%3A%2F%2Ftracker.openbittorrent.com%3A80","udp%3A%2F%2Fopen.demonii.com%3A1337","udp%3A%2F%2Ftracker.coppersurfer.tk%3A6969","udp%3A%2F%2Fexodus.desync.com%3A6969"],"infoHash":"94a001079f97097796306f0981d2e20341536a73","infoHashBuffer":{"type":"Buffer","data":[148,160,1,7,159,151,9,119,150,48,111,9,129,210,226,3,65,83,106,115]},"announce":[],"urlList":[]}}